# xmcd
#
# Track frame offsets: 
#        6359
#        12863
#        35956
#        59888
#        81382
#        106529
#        129821
#        147179
#        171155
#        201809
#        215232
#
# Disc length: 3131 seconds
#
# Revision: 3
# Processed by: cddbd v1.5.2PL0 Copyright (c) Steve Scherf et al.
# Submitted via: ExactAudioCopyFreeDBPlugin 1.0
#
DISCID=ab0be70b
DTITLE=Sirius - Spectral Transition - Dimension Sirius
DYEAR=2001
DGENRE=Black Metal
TTITLE0=Spectral Transition
TTITLE1=Spiritual Metamorphosis
TTITLE2=In Astral Plains Of Trance
TTITLE3=Abstract Eerie Corridors
TTITLE4=Desolate Magnetic Fields
TTITLE5=Into Forbidden Dimensions
TTITLE6=Axis
TTITLE7=Stellar Transcendence
TTITLE8=Paradox Timeline
TTITLE9=Dimensional Quantum
TTITLE10=The Majesty Of The Nightsky (Emperor Cover)
EXTD=
EXTT0=
EXTT1=
EXTT2=
EXTT3=
EXTT4=
EXTT5=
EXTT6=
EXTT7=
EXTT8=
EXTT9=
EXTT10=
PLAYORDER=
